<?xml version="1.0" encoding="UTF-8" standalone="no"?>
<svg
   xmlns:dc="http://purl.org/dc/elements/1.1/"
   xmlns:cc="http://creativecommons.org/ns#"
   xmlns:rdf="http://www.w3.org/1999/02/22-rdf-syntax-ns#"
   xmlns:svg="http://www.w3.org/2000/svg"
   xmlns="http://www.w3.org/2000/svg"
   xmlns:sodipodi="http://sodipodi.sourceforge.net/DTD/sodipodi-0.dtd"
   xmlns:inkscape="http://www.inkscape.org/namespaces/inkscape"
   version="1.1"
   x="0px"
   y="0px"
   viewBox="0 0 88.304003 72.734"
   enable-background="new 0 0 100 100"
   xml:space="preserve"
   id="svg28"
   sodipodi:docname="basecamp_logo_inv.svg"
   inkscape:version="0.92.2 (5c3e80d, 2017-08-06)"
   width="51.943531"
   height="42.784706"><metadata
     id="metadata34"><rdf:RDF><cc:Work
         rdf:about=""><dc:format>image/svg+xml</dc:format><dc:type
           rdf:resource="http://purl.org/dc/dcmitype/StillImage" /><dc:title></dc:title></cc:Work></rdf:RDF></metadata><defs
     id="defs32" /><sodipodi:namedview
     pagecolor="#ffffff"
     bordercolor="#666666"
     borderopacity="1"
     objecttolerance="10"
     gridtolerance="10"
     guidetolerance="10"
     inkscape:pageopacity="0"
     inkscape:pageshadow="2"
     inkscape:window-width="1920"
     inkscape:window-height="1027"
     id="namedview30"
     showgrid="false"
     inkscape:zoom="5.3400704"
     inkscape:cx="-0.75392143"
     inkscape:cy="-22.205394"
     inkscape:window-x="-8"
     inkscape:window-y="-8"
     inkscape:window-maximized="1"
     inkscape:current-layer="svg28"
     fit-margin-top="0"
     fit-margin-left="0"
     fit-margin-right="0"
     fit-margin-bottom="0"
     scale-x="1.7" /><g
     id="g22"
     transform="translate(-5.848,-13.633)"
     style="fill:#ffffff;stroke:#000000;stroke-width:0;stroke-miterlimit:4;stroke-dasharray:none"><rect
       x="61.618999"
       y="33.903999"
       width="2.102"
       height="4.6630001"
       id="rect2"
       style="fill:#ffffff;stroke:#000000;stroke-width:0;stroke-miterlimit:4;stroke-dasharray:none" /><polygon
       points="69.744,28.013 65.673,22.001 68.222,22.001 62.67,13.802 57.117,22.001 59.666,22.001 55.595,28.013 58.273,28.013 54.707,33.279 70.632,33.279 67.066,28.013 "
       id="polygon4"
       style="fill:#ffffff;stroke:#000000;stroke-width:0;stroke-miterlimit:4;stroke-dasharray:none" /><rect
       x="35.356998"
       y="33.007999"
       width="2.026"
       height="4.4949999"
       id="rect6"
       style="fill:#ffffff;stroke:#000000;stroke-width:0;stroke-miterlimit:4;stroke-dasharray:none" /><polygon
       points="43.189,27.33 39.265,21.536 41.721,21.536 36.37,13.633 31.018,21.536 33.474,21.536 29.551,27.33 32.132,27.33 28.694,32.407 44.045,32.407 40.607,27.33 "
       id="polygon8"
       style="fill:#ffffff;stroke:#000000;stroke-width:0;stroke-miterlimit:4;stroke-dasharray:none" /><rect
       x="14.095"
       y="52.313999"
       width="2.507"
       height="5.5630002"
       id="rect10"
       style="fill:#ffffff;stroke:#000000;stroke-width:0;stroke-miterlimit:4;stroke-dasharray:none" /><polygon
       points="23.789,45.286 18.932,38.113 21.973,38.113 15.349,28.331 8.724,38.113 11.765,38.113 6.908,45.286 10.103,45.286 5.848,51.569 24.849,51.569 20.594,45.286 "
       id="polygon12"
       style="fill:#ffffff;stroke:#000000;stroke-width:0;stroke-miterlimit:4;stroke-dasharray:none" /><rect
       x="83.398003"
       y="52.313999"
       width="2.507"
       height="5.5630002"
       id="rect14"
       style="fill:#ffffff;stroke:#000000;stroke-width:0;stroke-miterlimit:4;stroke-dasharray:none" /><polygon
       points="93.092,45.286 88.235,38.113 91.276,38.113 84.651,28.331 78.027,38.113 81.068,38.113 76.211,45.286 79.406,45.286 75.151,51.569 94.152,51.569 89.897,45.286 "
       id="polygon16"
       style="fill:#ffffff;stroke:#000000;stroke-width:0;stroke-miterlimit:4;stroke-dasharray:none" /><polygon
       points="35.043,66.631 41.742,82.806 50.611,86.367 35.844,49.773 22.446,75.06 27.902,77.25 "
       id="polygon18"
       style="fill:#ffffff;stroke:#000000;stroke-width:0;stroke-miterlimit:4;stroke-dasharray:none" /><polygon
       points="63.363,40.864 78.365,74.306 53.021,86.367 37.413,48.813 "
       id="polygon20"
       style="fill:#ffffff;stroke:#000000;stroke-width:0;stroke-miterlimit:4;stroke-dasharray:none" /></g></svg>