<?xml version="1.0" encoding="UTF-8" standalone="no"?>
<svg
   xmlns:dc="http://purl.org/dc/elements/1.1/"
   xmlns:cc="http://creativecommons.org/ns#"
   xmlns:rdf="http://www.w3.org/1999/02/22-rdf-syntax-ns#"
   xmlns:svg="http://www.w3.org/2000/svg"
   xmlns="http://www.w3.org/2000/svg"
   xmlns:sodipodi="http://sodipodi.sourceforge.net/DTD/sodipodi-0.dtd"
   xmlns:inkscape="http://www.inkscape.org/namespaces/inkscape"
   version="1.1"
   x="0px"
   y="0px"
   width="26.323195"
   height="49.507561"
   viewBox="0 0 52.646389 99.015124"
   enable-background="new 0 0 100 100"
   xml:space="preserve"
   id="svg10"
   sodipodi:docname="radio_mic.svg"
   inkscape:version="0.92.2 (5c3e80d, 2017-08-06)"><metadata
     id="metadata16"><rdf:RDF><cc:Work
         rdf:about=""><dc:format>image/svg+xml</dc:format><dc:type
           rdf:resource="http://purl.org/dc/dcmitype/StillImage" /><dc:title></dc:title></cc:Work></rdf:RDF></metadata><defs
     id="defs14" /><sodipodi:namedview
     pagecolor="#ffffff"
     bordercolor="#666666"
     borderopacity="1"
     objecttolerance="10"
     gridtolerance="10"
     guidetolerance="10"
     inkscape:pageopacity="0"
     inkscape:pageshadow="2"
     inkscape:window-width="1920"
     inkscape:window-height="1027"
     id="namedview12"
     showgrid="false"
     scale-x="2"
     fit-margin-top="0"
     fit-margin-left="0"
     fit-margin-right="0"
     fit-margin-bottom="0"
     inkscape:zoom="2.36"
     inkscape:cx="36.072353"
     inkscape:cy="-0.20251292"
     inkscape:window-x="-8"
     inkscape:window-y="-8"
     inkscape:window-maximized="1"
     inkscape:current-layer="svg10" /><g
     id="Captions"
     transform="translate(-23.677,-0.49287681)" /><g
     id="Your_Icon"
     transform="translate(-23.677,-0.49287681)"><path
       d="m 45.817,97.742 c -10.633,0 -19.361,-3.311 -22.113,-7.956 0.567,5.413 10.25,9.722 22.113,9.722 11.862,0 21.545,-4.309 22.112,-9.722 -2.752,4.646 -11.481,7.956 -22.112,7.956 z"
       id="path3"
       inkscape:connector-curvature="0" /><path
       d="m 49.641,75.685 c 0,0 0.002,6.86 0.002,6.869 H 48.758 V 69.53 c -0.047,-0.001 -0.089,-0.001 -0.139,-0.001 -1.14,-0.06 -2.37,-0.146 -3.602,-0.375 -0.621,-0.097 -1.226,-0.242 -1.865,-0.401 -0.094,-0.025 -0.185,-0.054 -0.278,-0.079 v 13.88 h -0.882 v -6.869 c -10.404,0.837 -18.315,5.024 -18.315,10.069 0,5.646 9.913,10.224 22.14,10.224 12.227,0 22.139,-4.578 22.139,-10.224 0,-5.045 -7.912,-9.233 -18.315,-10.069 z"
       id="path5"
       inkscape:connector-curvature="0" /><path
       d="M 66.815,4.661 C 63.395,2.675 60.023,1.339 54.707,0.685 49.391,0.031 42.678,0.908 39.09,5.483 41.023,5.475 43.401,5.587 46.096,5.967 46.091,5.982 46.082,5.995 46.078,6.011 L 44.99,9.418 c -3.332,-0.424 -6.093,-0.42 -7.957,-0.326 -0.105,0.272 -0.22,0.54 -0.311,0.821 l -0.125,0.393 c 1.989,0.077 4.666,0.292 7.844,0.83 l -1.093,3.427 c -3.354,-0.54 -6.078,-0.705 -7.881,-0.744 l -0.406,1.263 c 1.894,0.209 4.528,0.576 7.733,1.217 l -1.086,3.404 c -3.343,-0.654 -6.007,-0.998 -7.755,-1.177 l -0.42,1.304 c 1.787,0.346 4.378,0.879 7.613,1.634 l -1.077,3.374 c -3.326,-0.772 -5.928,-1.3 -7.625,-1.622 l -0.422,1.31 c 1.661,0.475 4.195,1.187 7.484,2.075 l -1.075,3.367 c -3.303,-0.893 -5.841,-1.607 -7.49,-2.079 l -0.414,1.288 c 1.515,0.598 3.991,1.514 7.343,2.551 l -1.078,3.377 C 33.506,34.086 31.039,33.179 29.44,32.551 l -0.394,1.227 c 1.345,0.706 3.751,1.855 7.189,3.069 l -1.08,3.384 c -3.259,-1.145 -5.661,-2.248 -7.208,-3.038 l -0.361,1.124 c 1.144,0.786 3.462,2.21 7.021,3.635 l -1.084,3.397 c -3.033,-1.197 -5.275,-2.418 -6.775,-3.352 -0.041,0.416 -0.067,0.83 -0.072,1.243 1.108,0.91 3.17,2.386 6.306,3.805 l -1.091,3.418 c -1.729,-0.76 -3.179,-1.549 -4.378,-2.291 0.861,2.412 2.354,4.581 4.361,6.238 0.217,0.179 0.45,0.343 0.677,0.51 4.043,2.191 10.08,3.385 17.341,3.385 0.358,0 0.721,-0.003 1.09,-0.009 l 1.333,-3.838 c -0.341,-0.003 -0.697,0.004 -1.032,-0.005 -6.633,-0.174 -11.958,-1.296 -16.122,-2.72 0.023,-0.054 0.061,-0.098 0.079,-0.155 l 1.031,-3.228 c 4.294,1.482 10.002,2.632 17.271,2.584 l 0.476,-1.368 C 47.002,49.165 41.298,47.957 36.851,46.532 l 1.081,-3.386 c 4.403,1.417 10.148,2.635 17.292,2.954 l 0.478,-1.375 C 48.774,43.967 43.037,42.68 38.515,41.32 l 1.079,-3.381 c 4.493,1.352 10.24,2.644 17.208,3.36 0.029,0.002 0.057,0.013 0.086,0.017 l 0.479,-1.378 C 50.54,38.778 44.777,37.401 40.179,36.105 l 1.079,-3.377 c 4.53,1.276 10.204,2.633 16.887,3.762 0.135,0.023 0.261,0.063 0.383,0.114 L 59.026,35.17 C 58.907,35.167 58.788,35.152 58.67,35.124 52.155,33.559 46.469,32.103 41.848,30.88 l 1.074,-3.368 c 4.566,1.207 10.166,2.639 16.571,4.178 0.383,0.092 0.702,0.306 0.937,0.586 0.903,-1.022 2.208,-1.652 3.629,-1.652 0.542,0 1.079,0.091 1.595,0.271 1.225,0.426 2.21,1.303 2.775,2.471 0.393,0.81 0.533,1.693 0.449,2.567 -0.163,-1.475 -1.137,-2.802 -2.632,-3.321 -2.072,-0.721 -4.336,0.375 -5.057,2.446 L 52.495,60.05 c -11.052,0.261 -17.858,-1.988 -21.504,-4.756 0.007,0.086 0.279,1.784 3.792,5.819 0.836,0.961 3.302,3.005 4.367,3.693 0.531,0.35 1.084,0.648 1.645,0.936 0.565,0.267 1.138,0.522 1.719,0.728 0.58,0.222 1.167,0.388 1.755,0.55 0.588,0.146 1.179,0.288 1.766,0.38 1.182,0.219 2.348,0.305 3.512,0.365 1.156,0.029 2.302,0.009 3.432,-0.07 1.129,-0.08 2.238,-0.216 3.343,-0.374 v 0 l 2.196,-0.405 0.759,-2.181 1.521,-4.378 0.685,-1.967 c 2.178,-1.697 3.898,-4.022 4.809,-6.849 l 9.36,-29.104 C 78.07,14.922 73.688,8.65 66.815,4.661 Z M 61.992,29.118 C 61.749,29.885 61.03,30.369 60.264,30.349 60.102,30.345 59.938,30.317 59.775,30.266 53.617,28.308 48.084,26.8 43.51,25.665 l 1.076,-3.369 c 4.6,1.144 10.128,2.657 16.26,4.605 0.929,0.295 1.442,1.288 1.146,2.217 z m 1.186,-4.7 c -0.284,0.703 -0.969,1.125 -1.684,1.106 -0.205,-0.006 -0.412,-0.047 -0.614,-0.128 -5.803,-2.336 -11.18,-3.9 -15.703,-4.95 l 1.082,-3.389 c 4.601,1.084 10.04,2.688 15.941,5.065 0.904,0.364 1.342,1.392 0.978,2.296 z m 1.175,-4.7 c -0.315,0.637 -0.964,0.999 -1.63,0.981 -0.249,-0.005 -0.499,-0.065 -0.735,-0.183 -5.454,-2.7 -10.673,-4.32 -15.145,-5.291 l 1.086,-3.403 c 4.625,1.036 9.987,2.74 15.624,5.531 0.874,0.434 1.231,1.492 0.8,2.365 z m 1.163,-4.703 c -0.339,0.568 -0.946,0.877 -1.563,0.86 C 63.66,15.867 63.365,15.787 63.097,15.626 57.987,12.579 52.927,10.9 48.511,10 l 0.93,-2.917 c 0.055,-0.171 0.074,-0.343 0.076,-0.514 4.665,0.987 9.979,2.798 15.388,6.026 0.837,0.501 1.11,1.583 0.611,2.42 z"
       id="path7"
       inkscape:connector-curvature="0" /></g></svg>